<svg width="24" height="24" viewBox="0 0 24 24" fill="none" xmlns="http://www.w3.org/2000/svg">
<mask id="mask0_1_889" style="mask-type:alpha" maskUnits="userSpaceOnUse" x="0" y="0" width="24" height="24">
<rect width="24" height="24" fill="#D9D9D9"/>
</mask>
<g mask="url(#mask0_1_889)">
<path d="M8.95036 17.2002C8.83356 17.0666 8.77096 16.9166 8.76256 16.7502C8.75416 16.5834 8.81676 16.4334 8.95036 16.3002L13.2752 12L8.92516 7.64996C8.80836 7.53316 8.75416 7.38736 8.76256 7.21256C8.77096 7.03736 8.83356 6.88316 8.95036 6.74996C9.08356 6.61676 9.23356 6.55436 9.40036 6.56276C9.56676 6.57076 9.70836 6.63316 9.82516 6.74996L14.5004 11.4498C14.5836 11.5334 14.646 11.6168 14.6876 11.7C14.7292 11.7832 14.75 11.8832 14.75 12C14.75 12.1 14.7292 12.1958 14.6876 12.2874C14.646 12.379 14.5836 12.4666 14.5004 12.5502L9.85036 17.2002C9.71676 17.3334 9.56676 17.3958 9.40036 17.3874C9.23356 17.379 9.08356 17.3166 8.95036 17.2002Z" fill="currentColor"/>
</g>
</svg>
