<svg width="24" height="24" viewBox="0 0 24 24" fill="none" xmlns="http://www.w3.org/2000/svg">
<mask id="mask0_1_833" style="mask-type:alpha" maskUnits="userSpaceOnUse" x="0" y="0" width="24" height="24">
<rect width="24" height="24" fill="#D9D9D9"/>
</mask>
<g mask="url(#mask0_1_833)">
<path d="M12 12.8748L6.75 18.1248C6.6332 18.2416 6.4916 18.3042 6.3252 18.3126C6.1584 18.321 6.0084 18.2584 5.8752 18.1248C5.7416 17.9916 5.6748 17.8416 5.6748 17.6748C5.6748 17.5084 5.7416 17.3668 5.8752 17.25L11.1252 12L5.8752 6.75C5.7584 6.6332 5.6958 6.4916 5.6874 6.3252C5.679 6.1584 5.7416 6.0084 5.8752 5.8752C6.0084 5.7416 6.1584 5.6748 6.3252 5.6748C6.4916 5.6748 6.6332 5.7416 6.75 5.8752L12 11.1252L17.25 5.8752C17.3668 5.7584 17.5084 5.6958 17.6748 5.6874C17.8416 5.679 17.9916 5.7416 18.1248 5.8752C18.2584 6.0084 18.3252 6.1584 18.3252 6.3252C18.3252 6.4916 18.2584 6.6332 18.1248 6.75L12.8748 12L18.1248 17.25C18.2416 17.3668 18.3042 17.5084 18.3126 17.6748C18.321 17.8416 18.2584 17.9916 18.1248 18.1248C17.9916 18.2584 17.8416 18.3252 17.6748 18.3252C17.5084 18.3252 17.3668 18.2584 17.25 18.1248L12 12.8748Z" fill="currentColor"/>
</g>
</svg>
