<svg width="24" height="24" viewBox="0 0 24 24" fill="none" xmlns="http://www.w3.org/2000/svg">
<mask id="mask0_1_877" style="mask-type:alpha" maskUnits="userSpaceOnUse" x="0" y="0" width="24" height="24">
<rect width="24" height="24" fill="#D9D9D9"/>
</mask>
<g mask="url(#mask0_1_877)">
<path d="M12.0001 14.7252C11.9001 14.7252 11.8043 14.7084 11.7127 14.6748C11.6211 14.6416 11.5335 14.5834 11.4499 14.5002L6.77526 9.82501C6.65846 9.70821 6.60426 9.55821 6.61266 9.37501C6.62106 9.19181 6.68346 9.04181 6.79986 8.92501C6.93346 8.79181 7.08346 8.72941 7.24986 8.73781C7.41666 8.74581 7.55846 8.81661 7.67526 8.95021L12.0001 13.2498L16.3249 8.92501C16.4417 8.82501 16.5877 8.77081 16.7629 8.76241C16.9377 8.75401 17.0835 8.81661 17.2003 8.95021C17.3335 9.06661 17.3959 9.21241 17.3875 9.38761C17.3791 9.56241 17.3167 9.70821 17.2003 9.82501L12.5503 14.5002C12.4667 14.5834 12.3791 14.6416 12.2875 14.6748C12.1959 14.7084 12.1001 14.7252 12.0001 14.7252Z" fill="currentColor"/>
</g>
</svg>
