<svg width="24" height="24" viewBox="0 0 24 24" fill="none" xmlns="http://www.w3.org/2000/svg">
<mask id="mask0_1_928" style="mask-type:alpha" maskUnits="userSpaceOnUse" x="0" y="0" width="24" height="24">
<rect width="24" height="24" fill="#D9D9D9"/>
</mask>
<g mask="url(#mask0_1_928)">
<path d="M12 1.99976C13.2168 1.99976 14.2502 2.42476 15.1002 3.27476C15.9502 4.12476 16.3752 5.15816 16.3752 6.37496V8.57516H17.925C18.3582 8.57516 18.729 8.72936 19.0374 9.03776C19.3458 9.34576 19.5 9.71656 19.5 10.1502V19.9248C19.5 20.3584 19.3458 20.7292 19.0374 21.0372C18.729 21.3456 18.3582 21.4998 17.925 21.4998H6.075C5.6418 21.4998 5.271 21.3456 4.9626 21.0372C4.6542 20.7292 4.5 20.3584 4.5 19.9248V10.1502C4.5 9.71656 4.6542 9.34576 4.9626 9.03776C5.271 8.72936 5.6418 8.57516 6.075 8.57516H7.6248V6.37496C7.6248 5.15816 8.0498 4.12476 8.8998 3.27476C9.7498 2.42476 10.7832 1.99976 12 1.99976ZM12 3.25016C11.1332 3.25016 10.3956 3.55436 9.7872 4.16276C9.1792 4.77076 8.8752 5.50816 8.8752 6.37496V8.57516H15.1248V6.37496C15.1248 5.50816 14.8208 4.77076 14.2128 4.16276C13.6044 3.55436 12.8668 3.25016 12 3.25016ZM6.075 20.25H17.925C18.025 20.25 18.1042 20.2208 18.1626 20.1624C18.221 20.104 18.2502 20.0248 18.2502 19.9248V10.1502C18.2502 10.0502 18.221 9.97096 18.1626 9.91256C18.1042 9.85416 18.025 9.82496 17.925 9.82496H6.075C5.975 9.82496 5.8958 9.85416 5.8374 9.91256C5.779 9.97096 5.7498 10.0502 5.7498 10.1502V19.9248C5.7498 20.0248 5.779 20.104 5.8374 20.1624C5.8958 20.2208 5.975 20.25 6.075 20.25ZM12 13.3248C11.5332 13.3248 11.129 13.4998 10.7874 13.8498C10.4458 14.1998 10.275 14.6082 10.275 15.075C10.275 15.525 10.4458 15.9166 10.7874 16.2498C11.129 16.5834 11.5332 16.7502 12 16.7502C12.4668 16.7502 12.871 16.5834 13.2126 16.2498C13.5542 15.9166 13.725 15.5166 13.725 15.0498C13.725 14.5998 13.5542 14.1998 13.2126 13.8498C12.871 13.4998 12.4668 13.3248 12 13.3248Z" fill="currentColor"/>
</g>
</svg>
