<svg width="24" height="24" viewBox="0 0 24 24" fill="none" xmlns="http://www.w3.org/2000/svg">
<mask id="mask0_1_836" style="mask-type:alpha" maskUnits="userSpaceOnUse" x="0" y="0" width="24" height="24">
<rect width="24" height="24" fill="#D9D9D9"/>
</mask>
<g mask="url(#mask0_1_836)">
<path d="M19.2254 20.1L13.2752 14.1498C12.7752 14.5834 12.196 14.9168 11.5376 15.15C10.8792 15.3832 10.2 15.4998 9.49999 15.4998C7.79999 15.4998 6.35839 14.9124 5.17519 13.7376C3.99199 12.5624 3.40039 11.1332 3.40039 9.45C3.40039 7.75 3.99199 6.3124 5.17519 5.1372C6.35839 3.9624 7.79179 3.375 9.47539 3.375C11.1586 3.375 12.5918 3.9624 13.775 5.1372C14.9586 6.3124 15.5504 7.75 15.5504 9.45C15.5504 10.15 15.4294 10.8292 15.1874 11.4876C14.9458 12.146 14.6084 12.7334 14.1752 13.2498L20.1752 19.2252C20.292 19.3416 20.3504 19.4832 20.3504 19.65C20.3504 19.8168 20.2836 19.9668 20.15 20.1C20.0168 20.2332 19.8626 20.2998 19.6874 20.2998C19.5126 20.2998 19.3586 20.2332 19.2254 20.1ZM9.47539 14.25C10.8254 14.25 11.9628 13.7834 12.8876 12.8502C13.8128 11.9166 14.2754 10.7832 14.2754 9.45C14.2754 8.1 13.8128 6.9584 12.8876 6.0252C11.9628 5.0916 10.8254 4.6248 9.47539 4.6248C8.14179 4.6248 7.00419 5.0916 6.06259 6.0252C5.12099 6.9584 4.65019 8.1 4.65019 9.45C4.65019 10.7832 5.12099 11.9166 6.06259 12.8502C7.00419 13.7834 8.14179 14.25 9.47539 14.25Z" fill="currentColor"/>
</g>
</svg>
