<svg width="24" height="24" viewBox="0 0 24 24" fill="none" xmlns="http://www.w3.org/2000/svg">
<mask id="mask0_1_1015" style="mask-type:alpha" maskUnits="userSpaceOnUse" x="0" y="0" width="24" height="24">
<rect width="24" height="24" fill="#D9D9D9"/>
</mask>
<g mask="url(#mask0_1_1015)">
<path d="M5.31377 17.5337C5.16302 17.5337 5.03959 17.4824 4.94348 17.3797C4.8477 17.2767 4.7998 17.1567 4.7998 17.0198C4.7998 16.8687 4.8477 16.7452 4.94348 16.6495C5.03959 16.5533 5.16302 16.5053 5.31377 16.5053H8.87304C9.02379 16.5053 9.14722 16.5533 9.24333 16.6495C9.33912 16.7452 9.38701 16.8687 9.38701 17.0198C9.38701 17.1705 9.33912 17.2939 9.24333 17.3901C9.14722 17.4858 9.02379 17.5337 8.87304 17.5337H5.31377ZM5.31377 7.4948C5.16302 7.4948 5.03959 7.44675 4.94348 7.35064C4.8477 7.25485 4.7998 7.13142 4.7998 6.98034C4.7998 6.82959 4.8477 6.70616 4.94348 6.61005C5.03959 6.51426 5.16302 6.46637 5.31377 6.46637H12.2259C12.377 6.46637 12.5004 6.51772 12.5962 6.62042C12.6923 6.72344 12.7404 6.84341 12.7404 6.98034C12.7404 7.13142 12.6923 7.25485 12.5962 7.35064C12.5004 7.44675 12.377 7.4948 12.2259 7.4948H5.31377ZM11.7737 19.2C11.6226 19.2 11.4992 19.1522 11.4034 19.0564C11.3073 18.9603 11.2592 18.8368 11.2592 18.6861V15.3327C11.2592 15.1954 11.3073 15.0755 11.4034 14.9728C11.4992 14.8697 11.6226 14.8182 11.7737 14.8182C11.9244 14.8182 12.0479 14.8697 12.144 14.9728C12.2398 15.0755 12.2876 15.1954 12.2876 15.3327V16.5053H18.6858C18.8366 16.5053 18.96 16.5533 19.0561 16.6495C19.1519 16.7452 19.1998 16.8687 19.1998 17.0198C19.1998 17.1705 19.1519 17.2939 19.0561 17.3901C18.96 17.4858 18.8366 17.5337 18.6858 17.5337H12.2876V18.6861C12.2876 18.8368 12.2363 18.9603 12.1336 19.0564C12.0306 19.1522 11.9106 19.2 11.7737 19.2ZM8.87304 14.1808C8.72196 14.1808 8.59853 14.1328 8.50275 14.0367C8.40663 13.9406 8.35858 13.8171 8.35858 13.6664V12.5145H5.31377C5.16302 12.5145 5.03959 12.4665 4.94348 12.3703C4.8477 12.2742 4.7998 12.1508 4.7998 12C4.7998 11.8493 4.8477 11.7259 4.94348 11.6298C5.03959 11.5336 5.16302 11.4856 5.31377 11.4856H8.35858V10.313C8.35858 10.1622 8.41009 10.0388 8.51311 9.94269C8.61581 9.84691 8.73578 9.79902 8.87304 9.79902C9.02379 9.79902 9.14722 9.84691 9.24333 9.94269C9.33912 10.0388 9.38701 10.1622 9.38701 10.313V13.6664C9.38701 13.8171 9.33912 13.9406 9.24333 14.0367C9.14722 14.1328 9.02379 14.1808 8.87304 14.1808ZM11.7737 12.5145C11.6226 12.5145 11.4992 12.4665 11.4034 12.3703C11.3073 12.2742 11.2592 12.1508 11.2592 12C11.2592 11.8493 11.3073 11.7259 11.4034 11.6298C11.4992 11.5336 11.6226 11.4856 11.7737 11.4856H18.6858C18.8366 11.4856 18.96 11.5336 19.0561 11.6298C19.1519 11.7259 19.1998 11.8493 19.1998 12C19.1998 12.1508 19.1519 12.2742 19.0561 12.3703C18.96 12.4665 18.8366 12.5145 18.6858 12.5145H11.7737ZM15.1266 9.18186C14.9758 9.18186 14.8524 9.13035 14.7563 9.02733C14.6605 8.92463 14.6126 8.79774 14.6126 8.64666V5.31402C14.6126 5.16327 14.6605 5.03984 14.7563 4.94372C14.8524 4.84794 14.9758 4.80005 15.1266 4.80005C15.2776 4.80005 15.4011 4.84794 15.4969 4.94372C15.593 5.03984 15.641 5.16327 15.641 5.31402V6.46637H18.6858C18.8366 6.46637 18.96 6.51772 19.0561 6.62042C19.1519 6.72344 19.1998 6.84341 19.1998 6.98034C19.1998 7.13142 19.1519 7.25485 19.0561 7.35064C18.96 7.44675 18.8366 7.4948 18.6858 7.4948H15.641V8.64666C15.641 8.79774 15.5895 8.92463 15.4865 9.02733C15.3838 9.13035 15.2638 9.18186 15.1266 9.18186Z" fill="currentColor"/>
</g>
</svg>
