<svg width="24" height="24" viewBox="0 0 24 24" fill="none" xmlns="http://www.w3.org/2000/svg">
<mask id="mask0_1_1007" style="mask-type:alpha" maskUnits="userSpaceOnUse" x="0" y="0" width="24" height="24">
<rect width="24" height="24" fill="#D9D9D9"/>
</mask>
<g mask="url(#mask0_1_1007)">
<path d="M19.4373 9.28773L12.1869 9.28773C12.0037 9.28773 11.8537 9.22933 11.7369 9.11253C11.6205 8.99573 11.5623 8.84573 11.5623 8.66253C11.5623 8.47933 11.6205 8.32933 11.7369 8.21253C11.8537 8.09573 12.0037 8.03733 12.1869 8.03733L19.4619 8.03733L16.8123 5.38773C16.7123 5.27093 16.6581 5.12913 16.6497 4.96233C16.6413 4.79593 16.7037 4.65433 16.8369 4.53753C16.9705 4.40433 17.1205 4.33773 17.2869 4.33773C17.4537 4.33773 17.6037 4.40433 17.7369 4.53753L21.3123 8.11233C21.3955 8.19593 21.4537 8.28353 21.4869 8.37513C21.5205 8.46673 21.5373 8.56253 21.5373 8.66253C21.5373 8.76253 21.5205 8.85833 21.4869 8.94993C21.4537 9.04153 21.3955 9.12913 21.3123 9.21273L17.6871 12.7875C17.5703 12.9043 17.4287 12.9627 17.2623 12.9627C17.0955 12.9627 16.9537 12.8959 16.8369 12.7623C16.7037 12.6459 16.6371 12.5043 16.6371 12.3375C16.6371 12.1707 16.7037 12.0207 16.8369 11.8875L19.4373 9.28773ZM4.9623 15.4623L7.5873 18.0873C7.7037 18.2041 7.7579 18.3459 7.7499 18.5127C7.7415 18.6791 7.6789 18.8207 7.5621 18.9375C7.4289 19.0707 7.2789 19.1373 7.1121 19.1373C6.9453 19.1373 6.8037 19.0707 6.6873 18.9375L3.0873 15.3627C3.0037 15.2791 2.9453 15.1957 2.9121 15.1125C2.8789 15.0293 2.8623 14.9293 2.8623 14.8125C2.8623 14.7125 2.8789 14.6167 2.9121 14.5251C2.9453 14.4335 3.0037 14.3459 3.0873 14.2623L6.6873 10.6875C6.8037 10.5707 6.9453 10.5123 7.1121 10.5123C7.2789 10.5123 7.4289 10.5707 7.5621 10.6875C7.6789 10.8207 7.7373 10.9707 7.7373 11.1375C7.7373 11.3043 7.6789 11.4543 7.5621 11.5875L4.9371 14.2125L12.2121 14.2125C12.3953 14.2125 12.5453 14.2709 12.6621 14.3877C12.7789 14.5041 12.8373 14.6541 12.8373 14.8377C12.8373 15.0209 12.7789 15.1709 12.6621 15.2877C12.5453 15.4041 12.3953 15.4623 12.2121 15.4623L4.9623 15.4623Z" fill="currentColor"/>
</g>
</svg>
