<svg width="24" height="24" viewBox="0 0 24 24" fill="none" xmlns="http://www.w3.org/2000/svg">
<mask id="mask0_1_1010" style="mask-type:alpha" maskUnits="userSpaceOnUse" x="0" y="0" width="24" height="24">
<rect width="24" height="24" fill="#D9D9D9"/>
</mask>
<g mask="url(#mask0_1_1010)">
<path fill-rule="evenodd" clip-rule="evenodd" d="M6.08581 7.91998C5.3994 7.91998 4.84295 8.51096 4.84295 9.23998V17.16C4.84295 17.889 5.3994 18.48 6.08581 18.48H18.5144C19.2008 18.48 19.7572 17.889 19.7572 17.16V9.23998C19.7572 8.51096 19.2008 7.91998 18.5144 7.91998H6.08581ZM3.6001 9.23998C3.6001 7.78194 4.71299 6.59998 6.08581 6.59998H18.5144C19.8872 6.59998 21.0001 7.78194 21.0001 9.23998V17.16C21.0001 18.618 19.8872 19.8 18.5144 19.8H6.08581C4.71299 19.8 3.6001 18.618 3.6001 17.16V9.23998Z" fill="currentColor"/>
<path fill-rule="evenodd" clip-rule="evenodd" d="M16.1148 3.04687C16.4892 2.97327 16.8746 2.98648 17.2437 3.08558C17.6149 3.18525 17.9604 3.36934 18.2557 3.62472C18.551 3.8801 18.7888 4.20048 18.952 4.56299C19.1153 4.92551 19.2 5.32122 19.2001 5.7219V6.95973H17.9375V5.72232C17.9375 5.72225 17.9375 5.72218 17.9375 5.72211C17.9374 5.51577 17.8937 5.31199 17.8097 5.12531C17.7256 4.93856 17.6031 4.77352 17.451 4.64196C17.2988 4.5104 17.1208 4.41556 16.9296 4.36422C16.7384 4.31288 16.5387 4.30629 16.3447 4.34493C16.3408 4.34572 16.3368 4.34648 16.3328 4.34719L5.94778 6.20039C5.64306 6.26245 5.3683 6.43311 5.1704 6.68334C4.97134 6.93504 4.86253 7.25149 4.86274 7.5781L4.86274 9.6H3.6001V7.57875C3.6001 7.57868 3.6001 7.57861 3.6001 7.57855C3.59979 6.9447 3.81099 6.3306 4.19732 5.8421C4.58374 5.3535 5.12112 5.02119 5.7168 4.90251C5.72078 4.90171 5.72477 4.90096 5.72877 4.90025L16.1148 3.04687Z" fill="currentColor"/>
<path d="M16.8001 14.4C16.5628 14.4 16.3308 14.3296 16.1334 14.1978C15.9361 14.0659 15.7823 13.8785 15.6914 13.6592C15.6006 13.4399 15.5769 13.1987 15.6232 12.9659C15.6695 12.7331 15.7837 12.5193 15.9516 12.3515C16.1194 12.1836 16.3332 12.0694 16.566 12.0231C16.7988 11.9768 17.04 12.0005 17.2593 12.0913C17.4786 12.1822 17.666 12.336 17.7979 12.5333C17.9297 12.7307 18.0001 12.9627 18.0001 13.2C18.0001 13.5183 17.8737 13.8235 17.6486 14.0485C17.4236 14.2736 17.1184 14.4 16.8001 14.4Z" fill="currentColor"/>
</g>
</svg>
